<?xml version="1.0" ?><!DOCTYPE svg  PUBLIC '-//W3C//DTD SVG 1.1//EN'  'http://www.w3.org/Graphics/SVG/1.1/DTD/svg11.dtd'><svg enable-background="new 0 0 24 24" height="24px" id="Layer_1" version="1.1" viewBox="0 0 24 24" width="24px" xml:space="preserve" xmlns="http://www.w3.org/2000/svg" xmlns:xlink="http://www.w3.org/1999/xlink"><path d="M23,19.9L23,19.9l0-2c0-0.3-0.2-0.5-0.5-0.5h-0.8c-0.1,0-0.3-0.2-0.3-0.2l0-10.4c0-0.1,0.2-0.3,0.3-0.3h0.8  c0.3,0,0.5-0.2,0.5-0.5V3.6c0-0.3-0.2-0.5-0.5-0.5h-7.9c-0.2,0-0.4,0.1-0.5,0.4l-2.2,8.1L9.8,3.5C9.7,3.3,9.5,3.1,9.3,3.1H1.3  c-0.3,0-0.5,0.2-0.5,0.5v2.5c0,0.3,0.2,0.5,0.5,0.5l0.8,0c0.1,0,0.3,0.2,0.3,0.3l0,10.4c0,0.1-0.2,0.2-0.3,0.2H1.3  c-0.3,0-0.5,0.2-0.5,0.5v2c-0.2,0.1-0.4,0.2-0.4,0.5c0,0.3,0.2,0.5,0.5,0.5h0.4H4h3.7c0.3,0,0.5-0.2,0.5-0.5v-2.5  c0-0.3-0.2-0.5-0.5-0.5H6.6v-7.2l2.8,10.3c0.1,0.2,0.2,0.4,0.5,0.4h2.9c0.2,0,0.4-0.1,0.5-0.4L16,10.2v7.2h-1.1  c-0.3,0-0.5,0.2-0.5,0.5v2.5c0,0.3,0.2,0.5,0.5,0.5h5h2.6H23c0.3,0,0.5-0.2,0.5-0.5C23.5,20.1,23.3,19.9,23,19.9z"/></svg>